<svg width="120" height="40" viewBox="0 0 120 40" xmlns="http://www.w3.org/2000/svg">
  <rect width="120" height="40" rx="10" fill="#D14836"/>
  <g transform="translate(14,10) scale(0.8333)">
    <path fill="#ffffff" d="M1.5 8.67v8.58a3 3 0 0 0 3 3h15a3 3 0 0 0 3-3V8.67l-8.928 5.493a3 3 0 0 1-3.144 0L1.5 8.67Z"/>
    <path fill="#ffffff" d="M22.5 6.908V6.75a3 3 0 0 0-3-3h-15a3 3 0 0 0-3 3v.158l9.714 5.978a1.5 1.5 0 0 0 1.572 0L22.5 6.908Z"/>
  </g>
  <text x="44" y="26" font-family="Segoe UI, Helvetica, Arial, sans-serif" font-size="15" font-weight="700" fill="#ffffff">Email</text>
</svg>
